<svg width="239" height="248" viewBox="0 0 239 248" fill="none" xmlns="http://www.w3.org/2000/svg">
<path d="M235.913 33.3854C231.268 42.188 214.62 47.8527 206.877 49.5847C201.783 51.928 191.35 56.7368 190.372 57.2258C189.394 57.7149 186.501 50.0941 185.176 46.2226C187.723 44.3887 194.407 40.1097 200.764 37.6645C208.711 34.608 216.352 12.6015 218.797 6.18296C221.242 -0.235604 225.827 -0.541246 231.329 2.82085C237.16 6.3847 241.721 22.3822 235.913 33.3854Z" fill="#6C929D"/>
<path d="M229.575 33.8483C226.545 39.6532 215.688 43.3887 210.638 44.5309C207.316 46.0762 200.512 49.2474 199.874 49.5699C199.236 49.8924 197.349 44.8668 196.485 42.3138C198.147 41.1044 202.505 38.2826 206.652 36.6701C211.834 34.6545 216.818 20.1423 218.412 15.9096C220.007 11.6769 222.997 11.4753 226.585 13.6924C230.389 16.0426 233.363 26.5922 229.575 33.8483Z" fill="#CCCFCD"/>
<path d="M3.31714 33.3635C7.96296 42.1661 24.6105 47.8307 32.3535 49.5627C37.4476 51.906 47.8803 56.7148 48.8584 57.2038C49.8364 57.6929 52.7299 50.0721 54.0544 46.2006C51.5073 44.3667 44.8238 40.0877 38.4664 37.6425C30.5196 34.5861 22.8785 12.5795 20.4333 6.16099C17.9881 -0.257576 13.4034 -0.563218 7.90183 2.79888C2.07014 6.36273 -2.49013 22.3602 3.31714 33.3635Z" fill="#6C929D"/>
<path d="M9.6562 33.8263C12.6861 39.6312 23.5433 43.3668 28.5931 44.5089C31.9154 46.0542 38.7194 49.2254 39.3573 49.5479C39.9951 49.8704 41.8822 44.8449 42.746 42.2918C41.0848 41.0824 36.726 38.2606 32.5798 36.6482C27.3971 34.6326 22.4137 20.1203 20.819 15.8876C19.2243 11.6549 16.2342 11.4533 12.6462 13.6705C8.84292 16.0207 5.86881 26.5702 9.6562 33.8263Z" fill="#CCCFCD"/>
<path d="M19.2559 95.3947C13.8695 125.918 25.424 166.652 34.962 180.118L208.621 176.752C214.232 163.94 224.275 128.106 219.562 87.259C213.671 36.2006 181.146 13.7573 121.934 13.7573C62.7216 13.7573 34.0698 41.2607 24.8555 70.9877C22.3699 79.0065 20.6863 87.2893 19.2559 95.3947Z" fill="#CDCFCE"/>
<path d="M124.174 136.073C207.215 138.318 230.218 181.801 212.264 237.629C212.264 237.629 156.74 247.878 120.807 247.729C86.1809 247.584 32.7174 237.629 32.7174 237.629C20.6544 175.63 34.6822 142.806 124.174 136.073Z" fill="#86AFB7"/>
<ellipse cx="65.5412" cy="99.8841" rx="8.41623" ry="12.0633" fill="black"/>
<ellipse cx="177.197" cy="99.8841" rx="8.41623" ry="12.0633" fill="black"/>
<path d="M101.491 225.691C92.5052 226.918 76.7298 227.532 71.5379 211.577" stroke="black" stroke-width="5" stroke-linecap="round"/>
<path d="M81.4259 176.995C84.4338 183.121 84.368 189.448 79.5335 192.615C74.6989 195.782 70.3454 196.597 63.4713 189.732C58.4172 182.016 59.6626 175.151 64.4972 171.984C69.3317 168.818 76.3718 169.28 81.4259 176.995Z" fill="#CDCFCE" fill-opacity="0.4"/>
<path d="M165.753 176.995C162.745 183.121 162.811 189.448 167.645 192.615C172.48 195.782 176.833 196.597 183.707 189.732C188.762 182.016 187.516 175.151 182.682 171.984C177.847 168.818 170.807 169.28 165.753 176.995Z" fill="#CDCFCE" fill-opacity="0.4"/>
<path d="M170.603 178.279C167.303 182.479 167.588 187.817 170.603 189.792C173.619 191.767 178.529 190.002 181.523 185.432C184.517 180.861 183.653 176.712 180.638 174.737C177.623 172.762 173.597 173.708 170.603 178.279Z" fill="black"/>
<path d="M188.259 184.04C191.628 175.159 182.747 162.908 168.964 172.096" stroke="black" stroke-width="3" stroke-linecap="round"/>
<path d="M59.4234 184.04C56.0541 175.159 64.9357 162.908 78.7183 172.096" stroke="black" stroke-width="3" stroke-linecap="round"/>
<path d="M76.714 178.279C80.0141 182.479 79.7293 187.817 76.714 189.792C73.6987 191.767 68.7886 190.002 65.7946 185.432C62.8007 180.861 63.6643 176.712 66.6796 174.737C69.6949 172.762 73.72 173.708 76.714 178.279Z" fill="black"/>
<path d="M149.11 165.73C126.186 156.255 90.7314 163.285 89.8145 163.896C89.8145 163.896 106.682 145.621 110.293 130.886C113.94 116.002 106.931 92.9863 106.931 92.9863C120.685 96.9597 157.668 114.382 149.11 165.73Z" fill="#6C929D"/>
<ellipse cx="82.6455" cy="39.8117" rx="5.85513" ry="3.63499" transform="rotate(-30.8045 82.6455 39.8117)" fill="#5F8A8F"/>
<ellipse cx="60.4345" cy="55.576" rx="7.06536" ry="3.63499" transform="rotate(-21.7282 60.4345 55.576)" fill="#5F8A8F"/>
<ellipse cx="60.9021" cy="37.5081" rx="6.16065" ry="3.63499" transform="rotate(-30.5673 60.9021 37.5081)" fill="#5F8A8F"/>
</svg>
