<svg width="236" height="248" viewBox="0 0 236 248" fill="none" xmlns="http://www.w3.org/2000/svg">
<path d="M0.0707272 43.7745C-1.05143 61.0557 15.8744 69.4905 24.4776 71.5478C40.3748 59.5782 71.4959 33.3945 68.8027 24.4173C65.4363 13.1957 58.4228 6.18229 42.7126 4.21851C27.0024 2.25474 15.2198 11.5125 12.695 14.0374C10.1701 16.5622 1.47342 22.173 0.0707272 43.7745Z" fill="#562A06"/>
<path d="M19.7336 42.3679C19.2131 50.4001 27.064 54.3206 31.0545 55.2768C38.4283 49.7134 52.8635 37.5434 51.6143 33.3708C50.0528 28.1551 46.7997 24.8953 39.5126 23.9825C32.2256 23.0698 26.7604 27.3727 25.5893 28.5463C24.4181 29.7198 20.3843 32.3277 19.7336 42.3679Z" fill="#F4B47E"/>
<path d="M235.045 40.6793C236.168 57.9605 219.242 66.3953 210.639 68.4526C194.741 56.4829 163.62 30.2993 166.313 21.3221C169.68 10.1005 176.693 3.08707 192.404 1.1233C208.114 -0.840472 219.896 8.41731 222.421 10.9422C224.946 13.467 233.643 19.0778 235.045 40.6793Z" fill="#562A06"/>
<path d="M215.384 39.2722C215.904 47.3044 208.053 51.2249 204.063 52.1811C196.689 46.6177 182.254 34.4477 183.503 30.2751C185.064 25.0594 188.318 21.7996 195.605 20.8868C202.892 19.9741 208.357 24.277 209.528 25.4506C210.699 26.6241 214.733 29.232 215.384 39.2722Z" fill="#F4B47E"/>
<path d="M14.3819 95.3936C8.99552 125.916 20.55 166.65 30.0879 180.116L203.746 176.75C209.356 163.939 219.4 128.104 214.687 87.258C208.795 36.1999 176.271 13.7568 117.059 13.7568C57.8472 13.7568 29.1957 41.26 19.9814 70.9867C17.4958 79.0055 15.8122 87.2882 14.3819 95.3936Z" fill="#D76A1B"/>
<path d="M97.698 33.9557C96.5759 30.8698 94.5186 20.8639 94.3316 15.7207C91.2456 16.0012 91.2456 16.0012 87.5986 16.8429C87.5986 24.4174 90.9651 34.2363 92.6483 37.0416C94.3316 39.847 95.5479 41.4053 97.698 40.4081C99.984 39.348 98.8202 37.0416 97.698 33.9557Z" fill="black"/>
<path d="M138.287 33.9555C139.409 30.8696 141.556 20.5832 141.743 15.4399C144.829 15.7205 144.829 15.7205 148.476 16.2816C148.476 23.8561 145.02 34.236 143.337 37.0414C141.653 39.8468 140.437 41.405 138.287 40.4079C136.001 39.3477 137.165 37.0414 138.287 33.9555Z" fill="black"/>
<path d="M115.372 42.0913L114.53 13.7568H118.037H121.544V42.0913C121.544 42.0913 120.496 46.2993 118.458 46.2993C116.42 46.2993 115.372 42.0913 115.372 42.0913Z" fill="black"/>
<path d="M119.299 136.072C202.339 138.316 225.343 181.8 207.388 237.627C207.388 237.627 151.865 247.876 115.932 247.726C81.3064 247.582 27.8433 237.627 27.8433 237.627C15.7805 175.628 29.8081 142.805 119.299 136.072Z" fill="#EAC090"/>
<path d="M92.0875 90.9047C84.2324 106.615 76.3212 142.58 74.9746 142.804H163.064L152.684 115.592L141.743 90.9047C141.743 90.9047 126.769 85.2697 116.775 85.2939C106.888 85.318 92.0875 90.9047 92.0875 90.9047Z" fill="#AF4E02"/>
<path d="M76.9385 204.243C76.9385 204.243 86.0136 219.111 97.1373 219.111C118.178 219.111 118.178 176.75 118.178 176.75" stroke="black" stroke-width="4" stroke-linecap="round"/>
<path d="M159.459 203.963C159.459 203.963 150.384 218.831 139.26 218.831C115.934 218.831 118.22 176.47 118.22 176.47" stroke="black" stroke-width="4" stroke-linecap="round"/>
<path d="M88.4405 167.772C71.3278 151.782 74.6941 143.085 74.6941 143.085C74.6941 143.085 87.7422 139.41 96.2958 138.035C104.659 136.691 109.428 136.235 117.897 136.072C126.343 135.909 131.125 136.078 139.499 137.194C148.851 138.44 163.064 142.524 163.064 142.524C163.064 142.524 164.186 150.66 146.232 168.614C124.63 190.216 117.897 186.569 117.897 186.569C117.897 186.569 112.286 190.055 88.4405 167.772Z" fill="#603314"/>
<path d="M35.9798 106.054C35.9798 106.054 22.7944 103.249 13.5367 100.163C13.2561 103.249 12.9756 107.625 12.9756 110.543C15.2199 111.945 36.2603 112.226 36.2603 112.226C36.2603 112.226 40.878 112.512 41.0295 110.543C41.31 106.896 35.9798 106.054 35.9798 106.054Z" fill="black"/>
<path d="M33.6711 124.87C33.6711 124.87 21.5847 122.589 13.2559 119.8C13.2559 121.484 13.5364 125.131 14.0975 129.619C16.1166 130.887 33.9234 130.448 33.9234 130.448C33.9234 130.448 38.0778 130.706 38.2141 128.927C38.4664 125.631 33.6711 124.87 33.6711 124.87Z" fill="black"/>
<path d="M32.2364 143.002C32.2364 143.002 23.038 142.079 15.7803 140.56C16.2862 142.478 16.3414 144.488 17.4635 148.135C19.2806 148.998 35.0761 147.399 35.0761 147.399C35.0761 147.399 36.5013 147.452 36.4422 145.95C36.3328 143.169 32.2364 143.002 32.2364 143.002Z" fill="black"/>
<path d="M193.092 106.054C193.092 106.054 206.267 103.249 215.525 100.163C215.795 103.81 215.805 105.773 215.805 110.543C213.56 111.945 192.811 112.226 192.811 112.226C192.811 112.226 188.194 112.512 188.042 110.543C187.762 106.896 193.092 106.054 193.092 106.054Z" fill="black"/>
<path d="M195.401 124.871C195.401 124.871 207.196 122.309 215.524 119.521C215.524 121.484 215.244 124.57 214.974 129.62C212.955 130.887 195.148 130.448 195.148 130.448C195.148 130.448 190.994 130.707 190.858 128.927C190.605 125.632 195.401 124.871 195.401 124.871Z" fill="black"/>
<path d="M196.833 143.002C196.833 143.002 206.026 142.079 213.28 140.56C212.775 142.478 212.719 144.487 211.598 148.134C209.781 148.996 193.995 147.399 193.995 147.399C193.995 147.399 192.57 147.452 192.629 145.951C192.739 143.17 196.833 143.002 196.833 143.002Z" fill="black"/>
<circle cx="56.7394" cy="185.446" r="2.24431" fill="black"/>
<circle cx="45.5177" cy="178.714" r="2.24431" fill="black"/>
<circle cx="68.5217" cy="180.958" r="2.24431" fill="black"/>
<circle cx="54.4953" cy="168.614" r="2.24431" fill="black"/>
<ellipse cx="69.0827" cy="168.895" rx="2.80539" ry="2.52485" fill="black"/>
<circle cx="2.24431" cy="2.24431" r="2.24431" transform="matrix(-1 0 0 1 182.982 183.202)" fill="black"/>
<circle cx="2.24431" cy="2.24431" r="2.24431" transform="matrix(-1 0 0 1 194.203 176.47)" fill="black"/>
<circle cx="2.24431" cy="2.24431" r="2.24431" transform="matrix(-1 0 0 1 171.199 178.714)" fill="black"/>
<circle cx="2.24431" cy="2.24431" r="2.24431" transform="matrix(-1 0 0 1 185.227 166.37)" fill="black"/>
<ellipse cx="2.80539" cy="2.52485" rx="2.80539" ry="2.52485" transform="matrix(-1 0 0 1 171.199 166.37)" fill="black"/>
<ellipse cx="60.6671" cy="99.8825" rx="8.41616" ry="12.0632" fill="black"/>
<ellipse cx="172.321" cy="99.8825" rx="8.41616" ry="12.0632" fill="black"/>
<path d="M98.8203 99.3213C98.8203 99.3213 109.447 96.2354 116.494 96.2354C123.542 96.2354 134.168 99.3213 134.168 99.3213" stroke="#823B04" stroke-opacity="0.69" stroke-width="5" stroke-linecap="round"/>
<path d="M93.21 109.701C93.21 109.701 107.828 105.773 117.336 105.773C126.845 105.773 140.902 109.701 140.902 109.701" stroke="#823B04" stroke-opacity="0.69" stroke-width="5" stroke-linecap="round"/>
<path d="M88.1592 120.362C88.1592 120.362 105.756 115.593 117.055 115.593C128.353 115.593 144.828 120.362 144.828 120.362" stroke="#823B04" stroke-opacity="0.69" stroke-width="5" stroke-linecap="round"/>
<path d="M86.4766 130.461C86.4766 130.461 105.119 125.411 117.089 125.411C129.058 125.411 146.512 130.461 146.512 130.461" stroke="#823B04" stroke-opacity="0.69" stroke-width="5" stroke-linecap="round"/>
</svg>
