<svg width="314" height="269" viewBox="0 0 314 269" fill="none" xmlns="http://www.w3.org/2000/svg">
<path d="M176.511 28.25L172.075 38.2312L175.68 43.7763L186.215 39.6175C188.248 34.5345 190.097 27.6955 193.147 25.7547C197.028 24.0912 198.414 24.0912 202.85 20.7642C206.399 18.1025 205.993 12.6314 204.514 9.95122C203.035 7.27109 198.026 4.6279 193.147 2.18806C188.267 -0.251785 181.502 1.07895 178.452 3.29709C176.326 5.23788 174.016 9.11946 175.68 15.2191C177.171 20.6873 177.435 25.9396 176.511 28.25Z" fill="#683010"/>
<path d="M137.67 28.169L142.106 38.1502L138.502 43.6953L127.966 39.5364C125.933 34.4534 124.085 27.6144 121.035 25.6737C117.154 24.0101 115.767 24.0102 111.331 20.6831C107.782 18.0215 108.189 12.5503 109.668 9.87017C111.146 7.19004 116.155 4.54685 121.035 2.107C125.915 -0.332839 132.68 0.997892 135.73 3.21604C137.855 5.15682 140.166 9.0384 138.502 15.138C137.011 20.6062 136.746 25.8585 137.67 28.169Z" fill="#683010"/>
<path d="M0.454102 24.6141C0.454102 63.1527 60.8957 90.3232 64.7767 90.3232L96.661 55.3891C75.5902 35.4268 55.9056 15.7421 0.454102 24.6141Z" fill="#D98F13"/>
<path d="M0.454102 24.6141C0.454102 63.1527 60.8957 90.3232 64.7767 90.3232L96.661 55.3891C75.5902 35.4268 55.9056 15.7421 0.454102 24.6141Z" fill="#D98F13"/>
<path d="M37.8828 48.2515C43.7052 69.5601 74.0189 79.8185 76.144 79.8185L90.5612 64.8398C79.0238 54.0798 68.2455 43.4694 37.8828 48.2515Z" fill="#D98F13"/>
<path d="M37.8828 48.2515C43.7052 69.5601 74.0189 79.8185 76.144 79.8185L90.5612 64.8398C79.0238 54.0798 68.2455 43.4694 37.8828 48.2515Z" fill="#EBBF90"/>
<path d="M313.474 24.6141C313.474 63.1527 253.032 90.3232 249.151 90.3232L217.267 55.3891C238.338 35.4268 258.022 15.7421 313.474 24.6141Z" fill="#D98F13"/>
<path d="M313.474 24.6141C313.474 63.1527 253.032 90.3232 249.151 90.3232L217.267 55.3891C238.338 35.4268 258.022 15.7421 313.474 24.6141Z" fill="#D98F13"/>
<path d="M276.044 48.2515C270.222 69.5601 239.908 79.8185 237.783 79.8185L223.366 64.8398C234.903 54.0798 245.681 43.4694 276.044 48.2515Z" fill="#D98F13"/>
<path d="M276.044 48.2515C270.222 69.5601 239.908 79.8185 237.783 79.8185L223.366 64.8398C234.903 54.0798 245.681 43.4694 276.044 48.2515Z" fill="#EBBF90"/>
<path d="M53.9468 117.923C48.5739 148.445 60.0996 189.177 69.6138 202.642L242.84 199.276C248.437 186.465 258.455 150.633 253.754 109.788C247.877 58.7318 215.434 36.2895 156.369 36.2896C97.3041 36.2896 68.7238 63.7916 59.5324 93.5172C57.053 101.536 55.3736 109.818 53.9468 117.923Z" fill="#F0AE3F"/>
<path d="M96.3838 187.373C103.22 184.712 114.365 184.807 117.455 198.206" stroke="black" stroke-width="5" stroke-linecap="round"/>
<path d="M219.484 187.373C212.648 184.712 201.503 184.807 198.413 198.206" stroke="black" stroke-width="5" stroke-linecap="round"/>
<path d="M183.951 246.02C202.158 244.619 213.641 239.857 218.403 223.332" stroke="black" stroke-width="5" stroke-linecap="round"/>
<ellipse cx="99.9885" cy="122.516" rx="8.5949" ry="11.922" fill="black"/>
<ellipse cx="206.731" cy="121.962" rx="8.31765" ry="11.922" fill="black"/>
<path d="M111.354 89.2447C106.475 82.5906 111.539 76.3061 114.681 73.9957C117.454 71.7776 122.445 64.0145 126.604 61.5192C130.762 59.0239 134.921 60.9647 136.585 61.5192C138.248 62.0737 145.18 67.8961 148.229 71.5004C151.279 75.1047 150.725 80.0953 150.725 81.7588C150.725 83.4223 144.348 91.4627 143.239 93.4035C142.13 95.3443 138.248 97.2851 133.258 98.9486C129.265 100.279 123.277 99.5031 120.781 98.9486C119.672 98.4865 116.234 95.8988 111.354 89.2447Z" fill="#DC931C"/>
<path d="M141.108 140.117C136.228 133.463 137.966 124.683 141.108 122.372C143.881 120.154 151.003 114.753 155.162 112.257C159.321 109.762 167.638 108.931 169.302 109.485C170.965 110.04 174.569 113.089 177.619 116.694C180.669 120.298 180.236 133.472 179.56 134.992C178.451 137.488 172.906 142.201 171.797 144.142C170.688 146.083 165.974 148.578 160.984 150.241C156.991 151.572 153.03 150.375 150.535 149.821C149.426 149.359 145.988 146.771 141.108 140.117Z" fill="#DC931C"/>
<path d="M73.9259 158.004C78.9167 159.391 83.9233 163.841 85.2935 164.936C86.6817 166.044 92.6744 174.933 90.5603 181.571C88.4789 188.107 73.9803 195.479 73.0502 197.629L66.7181 197.629C63.1136 191.272 59.7866 179.904 59.7866 179.904L55.905 165.764C58.6781 165.21 69.2529 156.706 73.9259 158.004Z" fill="#DC931C"/>
<path d="M77.8293 74.5844C86.2193 84.6994 85.0697 95.4614 82.4143 98.3181C79.8126 102.488 80.531 104.495 76.9113 107.723C73.2917 110.951 56.12 116.257 54.3822 116.022C55.6269 108.653 55.8828 107.822 56.4586 105.326C58.1221 98.1177 59.7857 92.2954 60.6174 90.3546L63.1127 84.255L65.608 79.2644L70.8759 70.6695C72.0517 70.9163 72.5394 70.115 77.8293 74.5844Z" fill="#DC931C"/>
<path d="M222.511 140.787C232.73 132.524 243.477 133.809 246.3 136.5C250.437 139.153 251.514 137.986 254.697 141.646C254.697 148.855 252.18 164.31 251.924 166.045C251.669 167.779 250.261 174.917 249.984 176.026C243.33 176.026 237.776 175.469 236.162 175.069C233.511 174.412 232.067 174.007 229.962 173.254C227.858 172.5 223.844 173.103 221.335 168.479C219.328 164.78 218.117 162.902 218.228 160.348C218.489 159.175 216.094 145.975 222.511 140.787Z" fill="#DC931C"/>
<path d="M218.098 49.5977C217.265 50.9841 217.823 51.2609 215.406 54.5643C212.695 58.6637 207.387 68.3898 203.684 71.5211C199.98 74.6524 187.947 73.9984 186.216 73.7184C184.485 73.4385 178.438 70.6861 174.849 67.6188C171.26 64.5516 167.495 53.147 167.917 51.538C168.611 48.8969 174.898 38.9376 175.68 36.8438C178.73 37.3986 180.526 37.3659 185.661 38.5073C193.146 40.171 192.494 39.7793 196.474 40.7253C197.643 41.0031 210.612 44.8844 218.098 49.5977Z" fill="#DC931C"/>
<path d="M154.735 156.618C237.581 158.858 260.53 202.264 242.618 257.992C242.618 257.992 187.224 268.222 151.376 268.073C116.831 267.929 63.4928 257.992 63.4928 257.992C51.4582 196.103 65.453 163.339 154.735 156.618Z" fill="#EBBF90"/>
<path d="M171.244 245.063C183.721 246.726 205.624 247.558 212.832 225.932" stroke="black" stroke-width="5"/>
<path d="M115.287 189.057C118.01 194.602 117.951 200.33 113.574 203.197C109.198 206.064 105.256 206.801 99.0335 200.587C94.4582 193.602 95.5857 187.387 99.9622 184.521C104.339 181.654 110.712 182.072 115.287 189.057Z" fill="#FBD5AD" fill-opacity="0.4"/>
<path d="M191.627 189.057C188.904 194.602 188.963 200.331 193.34 203.197C197.717 206.064 201.658 206.802 207.881 200.587C212.456 193.602 211.328 187.388 206.952 184.521C202.575 181.654 196.202 182.073 191.627 189.057Z" fill="#FBD5AD" fill-opacity="0.4"/>
<path d="M196.016 190.219C193.028 194.022 193.286 198.853 196.016 200.641C198.745 202.429 203.19 200.832 205.9 196.694C208.611 192.557 207.829 188.801 205.099 187.013C202.37 185.224 198.726 186.081 196.016 190.219Z" fill="black"/>
<path d="M212 195.434C215.05 187.394 207.01 176.303 194.533 184.621" stroke="black" stroke-width="5" stroke-linecap="round"/>
<path d="M95.3683 195.434C92.3182 187.394 100.358 176.303 112.835 184.621" stroke="black" stroke-width="5" stroke-linecap="round"/>
<path d="M111.021 190.219C114.008 194.022 113.75 198.853 111.021 200.641C108.291 202.429 103.846 200.832 101.136 196.694C98.4253 192.557 99.2071 188.801 101.937 187.013C104.666 185.224 108.31 186.081 111.021 190.219Z" fill="black"/>
</svg>
