<svg width="307" height="250" viewBox="0 0 307 250" fill="none" xmlns="http://www.w3.org/2000/svg">
<path d="M53.8296 99.2883C48.5295 129.322 59.899 169.404 69.2842 182.655L240.162 179.342C245.683 166.736 255.565 131.475 250.928 91.2829C245.131 41.0423 213.127 18.9584 154.863 18.9585C96.5991 18.9585 68.4062 46.0213 59.3395 75.2722C56.8937 83.1626 55.2371 91.3126 53.8296 99.2883Z" fill="#593316"/>
<path d="M95.7334 167.748C102.451 165.171 113.4 165.263 116.437 178.238" stroke="black" stroke-width="5" stroke-linecap="round"/>
<path d="M217.194 167.691C210.477 165.114 199.527 165.206 196.491 178.18" stroke="black" stroke-width="5" stroke-linecap="round"/>
<path d="M182.134 225.442C200.079 224.062 211.396 219.369 216.089 203.082" stroke="black" stroke-width="5" stroke-linecap="round"/>
<path d="M70.9716 111.138C73.1229 137.085 79.3987 153.932 84.688 161.951L158.65 144.923L165.104 102.489C164.477 79.6053 158.65 41.0415 116.693 46.5411C79.577 51.4061 68.7535 84.3858 70.9716 111.138Z" fill="#EBBF8E"/>
<path d="M233.843 111.138C231.692 137.085 225.416 153.932 220.126 161.951L146.165 144.923L139.71 102.489C140.338 79.6053 146.165 41.0415 188.121 46.5411C225.237 51.4061 236.061 84.3858 233.843 111.138Z" fill="#EBBF8E"/>
<path d="M157.066 139.315C238.777 141.524 261.412 184.311 243.745 239.245C243.745 239.245 189.111 249.33 153.754 249.182C119.682 249.04 67.0749 239.245 67.0749 239.245C55.2051 178.238 69.0082 145.941 157.066 139.315Z" fill="#D09A5C"/>
<path d="M5.61073 55.9497C24.6584 21.7193 70.2056 33.5899 80.1434 47.9443L60.4837 81.8976L56.4033 124.409C12.2356 126.342 -11.5038 93.2156 5.61073 55.9497Z" fill="#593316"/>
<path d="M13.555 58.9848C29.566 30.2756 62.9677 43.2502 73.4574 52.2706C73.4574 52.2706 66.4342 58.9848 59.3791 81.3447C53.8252 98.9466 53.8252 115.508 53.8252 115.508C17.3001 117.106 2.23747 87.1414 13.555 58.9848Z" fill="#EBBF8E"/>
<path d="M32.6035 73.3404C32.6035 73.3404 39.842 71.8384 45.5777 73.3404C51.6057 74.9189 61.5885 81.3458 61.5885 81.3458" stroke="#593316" stroke-width="4" stroke-linecap="round"/>
<path d="M299.597 57.3246C281.911 22.3707 235.932 32.4388 225.437 46.3908L243.745 81.0918L246.148 123.731C290.205 127.401 315.231 95.2354 299.597 57.3246Z" fill="#593316"/>
<path d="M291.54 60.046C276.672 30.7287 242.785 42.3781 231.949 50.9785C231.949 50.9785 238.702 57.964 244.871 80.5843C249.728 98.3913 249.076 114.94 249.076 114.94C285.509 117.975 301.74 88.6264 291.54 60.046Z" fill="#EBBF8E"/>
<path d="M271.941 73.6387C271.941 73.6387 264.768 71.8529 258.977 73.1279C252.892 74.4678 242.664 80.4967 242.664 80.4967" stroke="#593316" stroke-width="4" stroke-linecap="round"/>
<path d="M150.474 2.67384C146.133 9.18593 141.641 21.9959 125.906 21.1678C138.328 26.4126 163.338 38.836 166.209 38.836C169.08 38.836 182.312 31.8428 188.569 28.3462C178.539 26.5979 162.167 24.1475 162.621 20.0648C164.553 10.4019 162.897 4.60495 160.964 8.19472C159.308 12.6103 157.928 14.8199 153.787 15.648C150.182 16.369 151.303 8.19472 153.787 2.67382C154.339 -0.639951 151.624 0.949882 150.474 2.67384Z" fill="#593316"/>
<path d="M132.807 28.0686C135.015 27.8846 139.708 26.9092 140.812 24.48" stroke="#EBBF8E" stroke-width="4" stroke-linecap="round"/>
<path d="M146.223 27.8096C150.2 26.4124 152.408 24.7561 154.34 21.7195" stroke="#EBBF8E" stroke-width="4" stroke-linecap="round"/>
<path d="M166.161 30.8243C161.959 30.4931 159.269 31.1142 156.274 33.1092" stroke="#EBBF8E" stroke-width="4" stroke-linecap="round"/>
<ellipse cx="99.3742" cy="103.705" rx="8.28142" ry="11.87" fill="black"/>
<ellipse cx="204.772" cy="103.153" rx="8.28142" ry="11.87" fill="black"/>
<ellipse cx="145.533" cy="128.791" rx="3.93975" ry="4.67845" transform="rotate(-10.4258 145.533 128.791)" fill="#D09A5C" fill-opacity="0.63"/>
<ellipse cx="149.474" cy="113.258" rx="3.74955" ry="4.45259" transform="rotate(6.71042 149.474 113.258)" fill="#D09A5C" fill-opacity="0.63"/>
<ellipse cx="158.036" cy="123.234" rx="3.3545" ry="3.98347" transform="rotate(20.2442 158.036 123.234)" fill="#D09A5C" fill-opacity="0.63"/>
<path d="M106.031 213.296C112.104 227.375 141.917 246.146 185.257 225.719" stroke="#593316" stroke-width="6" stroke-linecap="round"/>
<path d="M154.339 176.03C151.854 180.355 147.603 195.298 151.578 217.161" stroke="#593316" stroke-width="6" stroke-linecap="round"/>
<path d="M177.729 170.781C172.496 172.411 157.29 169.942 157.29 169.942C157.29 169.942 168.403 159.274 173.636 157.643C178.869 156.013 184.028 157.632 185.158 161.26C186.288 164.888 182.962 169.151 177.729 170.781Z" fill="black"/>
<path d="M129.86 170.311C135.093 171.941 150.299 169.472 150.299 169.472C150.299 169.472 139.186 158.803 133.953 157.173C128.72 155.543 123.561 157.162 122.431 160.79C121.301 164.418 124.627 168.68 129.86 170.311Z" fill="black"/>
</svg>
