<svg width="292" height="292" viewBox="0 0 292 292" fill="none" xmlns="http://www.w3.org/2000/svg">
<path d="M291.244 145.778C291.244 226.117 283.672 291.243 145.778 291.243C58.5912 291.243 0.313132 232.507 0.313477 145.778C0.313925 32.894 65.4404 0.313477 145.778 0.313477C255.221 0.313477 291.244 65.4404 291.244 145.778Z" fill="#D78C22"/>
<path d="M63.3954 116.699C58.9559 141.855 68.4791 175.428 76.3402 186.527L219.469 183.752C224.093 173.193 232.371 143.659 228.486 109.993C223.631 67.9112 196.824 49.4135 148.022 49.4136C99.2194 49.4136 75.6049 72.0816 68.0105 96.5824C65.9619 103.191 64.5743 110.018 63.3954 116.699Z" fill="#F0AD44"/>
<path d="M149.868 150.226C218.31 152.075 237.269 187.914 222.471 233.927C222.471 233.927 176.709 242.374 147.093 242.251C118.554 242.132 74.4901 233.927 74.4901 233.927C64.5479 182.828 76.1095 155.775 149.868 150.226Z" fill="#EAC090"/>
<path d="M127.441 112.999C120.967 125.947 114.447 155.59 113.337 155.775H185.94L177.385 133.346L168.367 112.999C168.367 112.999 156.025 108.355 147.789 108.375C139.64 108.394 127.441 112.999 127.441 112.999Z" fill="#E09114"/>
<path d="M114.955 206.412C114.955 206.412 122.435 218.667 131.603 218.667C148.944 218.667 148.944 183.752 148.944 183.752" stroke="black" stroke-width="4" stroke-linecap="round"/>
<path d="M182.968 206.181C182.968 206.181 175.488 218.436 166.32 218.436C147.094 218.436 148.978 183.521 148.978 183.521" stroke="black" stroke-width="4" stroke-linecap="round"/>
<path d="M124.435 176.353C110.33 163.174 113.105 156.006 113.105 156.006C113.105 156.006 123.859 152.977 130.909 151.844C137.802 150.736 141.733 150.36 148.713 150.225C155.674 150.091 159.616 150.231 166.517 151.15C174.225 152.177 185.939 155.543 185.939 155.543C185.939 155.543 186.864 162.249 172.066 177.047C154.262 194.851 148.713 191.845 148.713 191.845C148.713 191.845 144.089 194.718 124.435 176.353Z" fill="#603314"/>
<circle cx="100.41" cy="188.87" r="1.84976" fill="black"/>
<circle cx="89.0568" cy="185.371" r="1.84976" fill="black"/>
<circle cx="110.046" cy="188.41" r="1.84976" fill="black"/>
<circle cx="96.7384" cy="200.341" r="1.84976" fill="black"/>
<circle cx="90.7726" cy="194.835" r="1.84976" fill="black"/>
<circle cx="108.21" cy="198.506" r="1.84976" fill="black"/>
<circle cx="96.4572" cy="177.047" r="1.84976" fill="black"/>
<ellipse cx="108.48" cy="177.278" rx="2.3122" ry="2.08098" fill="black"/>
<circle cx="1.84976" cy="1.84976" r="1.84976" transform="matrix(-1 0 0 1 199.542 187.02)" fill="black"/>
<circle cx="1.84976" cy="1.84976" r="1.84976" transform="matrix(-1 0 0 1 210.895 183.521)" fill="black"/>
<circle cx="1.84976" cy="1.84976" r="1.84976" transform="matrix(-1 0 0 1 189.905 186.561)" fill="black"/>
<circle cx="1.84976" cy="1.84976" r="1.84976" transform="matrix(-1 0 0 1 203.214 198.492)" fill="black"/>
<circle cx="1.84976" cy="1.84976" r="1.84976" transform="matrix(-1 0 0 1 209.179 192.985)" fill="black"/>
<circle cx="1.84976" cy="1.84976" r="1.84976" transform="matrix(-1 0 0 1 191.741 196.656)" fill="black"/>
<circle cx="1.84976" cy="1.84976" r="1.84976" transform="matrix(-1 0 0 1 203.495 175.197)" fill="black"/>
<ellipse cx="2.3122" cy="2.08098" rx="2.3122" ry="2.08098" transform="matrix(-1 0 0 1 191.935 175.197)" fill="black"/>
<circle cx="1.37613" cy="1.37613" r="1.37613" transform="matrix(-1 0 0 1 150.413 131.036)" fill="#603314" fill-opacity="0.7"/>
<circle cx="1.37613" cy="1.37613" r="1.37613" transform="matrix(-1 0 0 1 167.392 141.131)" fill="#603314" fill-opacity="0.7"/>
<circle cx="1.37613" cy="1.37613" r="1.37613" transform="matrix(-1 0 0 1 159.132 144.344)" fill="#603314" fill-opacity="0.7"/>
<circle cx="1.37613" cy="1.37613" r="1.37613" transform="matrix(-1 0 0 1 171.981 134.708)" fill="#603314" fill-opacity="0.7"/>
<circle cx="1.37613" cy="1.37613" r="1.37613" transform="matrix(-1 0 0 1 174.734 144.344)" fill="#603314" fill-opacity="0.7"/>
<circle cx="1.37613" cy="1.37613" r="1.37613" transform="matrix(-1 0 0 1 160.968 136.084)" fill="#603314" fill-opacity="0.7"/>
<circle cx="1.37613" cy="1.37613" r="1.37613" transform="matrix(-1 0 0 1 132.517 137.002)" fill="#603314" fill-opacity="0.7"/>
<circle cx="1.37613" cy="1.37613" r="1.37613" transform="matrix(-1 0 0 1 129.763 130.577)" fill="#603314" fill-opacity="0.7"/>
<circle cx="1.37613" cy="1.37613" r="1.37613" transform="matrix(-1 0 0 1 139.4 127.365)" fill="#603314" fill-opacity="0.7"/>
<circle cx="1.37613" cy="1.37613" r="1.37613" transform="matrix(-1 0 0 1 142.612 134.248)" fill="#603314" fill-opacity="0.7"/>
<circle cx="1.37613" cy="1.37613" r="1.37613" transform="matrix(-1 0 0 1 163.262 115.893)" fill="#603314" fill-opacity="0.7"/>
<circle cx="1.37613" cy="1.37613" r="1.37613" transform="matrix(-1 0 0 1 155.461 113.14)" fill="#603314" fill-opacity="0.7"/>
<circle cx="1.37613" cy="1.37613" r="1.37613" transform="matrix(-1 0 0 1 144.448 115.435)" fill="#603314" fill-opacity="0.7"/>
<circle cx="1.37613" cy="1.37613" r="1.37613" transform="matrix(-1 0 0 1 132.517 116.811)" fill="#603314" fill-opacity="0.7"/>
<circle cx="1.37613" cy="1.37613" r="1.37613" transform="matrix(-1 0 0 1 166.015 127.365)" fill="#603314" fill-opacity="0.7"/>
<circle cx="1.37613" cy="1.37613" r="1.37613" transform="matrix(-1 0 0 1 159.591 123.235)" fill="#603314" fill-opacity="0.7"/>
<circle cx="135.499" cy="123.005" r="1.14635" fill="#603314" fill-opacity="0.7"/>
<circle cx="1.37613" cy="1.37613" r="1.37613" transform="matrix(-0.99461 0.103691 0.103691 0.99461 143.974 145.261)" fill="#603314" fill-opacity="0.7"/>
<circle cx="1.37613" cy="1.37613" r="1.37613" transform="matrix(-0.99461 0.103691 0.103691 0.99461 150.041 137.919)" fill="#603314" fill-opacity="0.7"/>
<circle cx="135.612" cy="143.345" r="1.14635" transform="rotate(-5.95173 135.612 143.345)" fill="#603314" fill-opacity="0.7"/>
<circle cx="124.256" cy="147.096" r="1.37613" fill="#603314" fill-opacity="0.7"/>
<circle cx="1.37613" cy="1.37613" r="1.37613" transform="matrix(-1 0 0 1 151.331 120.481)" fill="#603314" fill-opacity="0.7"/>
<ellipse cx="101.544" cy="120.398" rx="6.93659" ry="9.94245" fill="black"/>
<ellipse cx="193.569" cy="120.398" rx="6.93659" ry="9.94245" fill="black"/>
<path d="M39.703 88.3197C42.7575 88.9594 50.3606 88.9489 55.0109 86.9069C57.6987 82.7418 59.5277 78.4254 61.2044 74.1232C61.0357 72.2955 60.2507 61.6801 54.3295 59.5504C47.9165 57.2438 46.2905 59.8314 39.2395 68.3163C29.4927 80.0453 38.131 87.9904 39.703 88.3197Z" fill="#61320C"/>
<path d="M47.9262 73.4206C51.5762 69.0284 57.7485 73.3395 60.3764 76.0156C60.2362 77.0075 57.7471 82.4794 56.1513 85.1613C54.4466 84.1665 43.3638 78.9108 47.9262 73.4206Z" fill="#E9C092"/>
<path d="M252.003 88.3202C248.949 88.9599 241.345 88.9494 236.695 86.9074C234.007 82.7423 232.178 78.4259 230.502 74.1237C230.67 72.296 231.455 61.6806 237.377 59.5509C243.79 57.2443 245.416 59.8319 252.467 68.3168C262.213 80.0458 253.575 87.9909 252.003 88.3202Z" fill="#61320C"/>
<path d="M243.78 73.4206C240.13 69.0284 233.958 73.3395 231.33 76.0156C231.47 77.0075 233.959 82.4794 235.555 85.1613C237.259 84.1665 248.342 78.9108 243.78 73.4206Z" fill="#E9C092"/>
</svg>
