<svg width="232" height="255" viewBox="0 0 232 255" fill="none" xmlns="http://www.w3.org/2000/svg">
<path d="M0.80614 0.95166C-1.71805 29.5666 16.7955 54.067 27.1754 63.5118L47.9373 66.8783C57.2886 61.6415 72.7369 46.8478 59.7199 29.5666C46.7029 12.2854 18.3872 4.59866 5.8565 2.91543C4.92137 2.26084 2.60211 0.95166 0.80614 0.95166Z" fill="#535252"/>
<path d="M26.2029 25.6387C24.6133 43.66 36.2724 59.09 42.8093 65.0383L55.8843 67.1584C61.7734 63.8604 71.5022 54.5435 63.3046 43.66C55.107 32.7765 37.2748 27.9355 29.3835 26.8754C28.7946 26.4632 27.334 25.6387 26.2029 25.6387Z" fill="#CECECE"/>
<path d="M231.737 0.95166C234.261 29.5666 215.747 54.067 205.368 63.5118L184.606 66.8783C175.254 61.6415 159.806 46.8478 172.823 29.5666C185.84 12.2854 214.156 4.59866 226.686 2.91543C227.622 2.26084 229.941 0.95166 231.737 0.95166Z" fill="#535252"/>
<path d="M206.34 25.6387C207.93 43.66 196.271 59.09 189.734 65.0383L176.659 67.1584C170.77 63.8604 161.041 54.5435 169.238 43.66C177.436 32.7765 195.268 27.9355 203.16 26.8754C203.748 26.4632 205.209 25.6387 206.34 25.6387Z" fill="#CECECE"/>
<path d="M14.9365 102.226C9.5502 132.748 21.1047 173.482 30.6426 186.948L204.3 183.582C209.911 170.771 219.954 134.936 215.241 94.09C209.35 43.032 176.826 20.5888 117.614 20.5889C58.4019 20.5889 29.7503 48.092 20.5361 77.8188C18.0505 85.8376 16.3669 94.1202 14.9365 102.226Z" fill="#CECECE"/>
<path d="M119.853 142.904C202.893 145.149 225.896 188.632 207.942 244.459C207.942 244.459 152.419 254.708 116.486 254.559C81.8602 254.414 28.397 244.459 28.397 244.459C16.3342 182.46 30.3618 149.637 119.853 142.904Z" fill="#545252"/>
<ellipse cx="61.2218" cy="106.715" rx="8.41616" ry="12.0632" fill="black"/>
<ellipse cx="168.335" cy="106.153" rx="8.41616" ry="12.0632" fill="black"/>
<path d="M40.6891 83.7104L19.0863 83.7104C18.5266 84.2715 18.246 85.6741 16.8432 91.846C20.2682 92.608 42.2637 89.6915 42.2637 89.6915C42.2637 89.6915 48.8136 88.7072 48.6502 86.7327C48.3475 83.0761 40.6891 83.7104 40.6891 83.7104Z" fill="#2D2D2D"/>
<path d="M40.4513 100.091C40.4513 100.091 29.7486 99.9813 15.1606 99.9813C14.8782 100.994 14.5994 103.348 14.0386 108.227C17.4636 108.989 42.0259 106.072 42.0259 106.072C42.0259 106.072 48.5758 105.088 48.4124 103.113C48.1097 99.4568 40.4513 100.091 40.4513 100.091Z" fill="#2D2D2D"/>
<path d="M40.5824 131.854L14.171 131.854C14.171 134.268 14.4524 135.671 15.0134 139.879C18.4384 140.641 42.157 137.835 42.157 137.835C42.157 137.835 48.7069 136.85 48.5435 134.876C48.2408 131.219 40.5824 131.854 40.5824 131.854Z" fill="#2D2D2D"/>
<path d="M40.4467 115.803L13.7538 115.803C13.194 116.364 13.4773 119.62 13.4773 123.828C16.9023 124.59 42.0213 121.784 42.0213 121.784C42.0213 121.784 48.5712 120.8 48.4078 118.826C48.1051 115.169 40.4467 115.803 40.4467 115.803Z" fill="#2D2D2D"/>
<path d="M188.823 135.337C188.823 135.337 198.453 136.443 214.987 138.087C215.715 136.763 215.465 135.049 216.026 129.438C212.259 128.295 187.935 129.212 187.935 129.212C187.935 129.212 180.364 129.453 180.253 131.434C180.048 135.105 188.823 135.337 188.823 135.337Z" fill="#2D2D2D"/>
<path d="M188.629 121.203C188.629 121.203 200.665 120.947 216.306 120.742C216.623 119.723 216.587 118.284 216.587 112.607C212.925 111.891 187.025 115.227 187.025 115.227C187.025 115.227 179.988 116.307 180.135 118.284C180.408 121.946 188.629 121.203 188.629 121.203Z" fill="#2D2D2D"/>
<path d="M187.963 89.5443L214.375 89.5444C214.375 87.1298 214.093 85.7271 213.533 81.519C210.107 80.7571 186.389 83.5631 186.389 83.5631C186.389 83.5631 179.839 84.5475 180.002 86.5219C180.305 90.1785 187.963 89.5443 187.963 89.5443Z" fill="#2D2D2D"/>
<path d="M188.099 105.595L216.026 105.595C216.585 105.034 216.026 99.982 215.465 97.4572C212.04 96.6953 186.525 99.6138 186.525 99.6138C186.525 99.6138 179.975 100.598 180.138 102.573C180.441 106.229 188.099 105.595 188.099 105.595Z" fill="#2D2D2D"/>
<path d="M109.8 23.1733C109.214 22.4571 108.117 20.929 107.276 20.929C106.629 20.6804 105.817 21.7146 105.593 21.4902C105.312 21.2096 104.19 23.1915 105.593 19.2639C106.715 16.1219 123.448 16.1782 128.217 17.5808C132.986 18.9835 135.918 28.5939 132.986 34.9743C128.217 45.3542 118.96 46.5416 112.326 47.2997C98.5788 48.8708 98.0179 39.1641 99.1401 40.2863C100.262 41.4084 103.98 41.413 106.715 40.2863C113.116 37.6489 112.325 26.2592 109.8 23.1733Z" fill="#535252"/>
<path d="M57.5215 171.8C64.3479 169.181 75.476 169.275 78.5619 182.46" stroke="black" stroke-width="5" stroke-linecap="round"/>
<path d="M180.959 171.741C174.133 169.123 163.005 169.217 159.919 182.402" stroke="black" stroke-width="5" stroke-linecap="round"/>
<path d="M145.329 230.432C163.565 229.03 175.067 224.26 179.836 207.708" stroke="black" stroke-width="5" stroke-linecap="round"/>
</svg>
